/* XPM */
static char *cb8cf392e0e44a2da01dbb8854707b95ZsaKkllNdnaQPUcr[] = {
/* columns rows colors chars-per-pixel */
"16 16 2 1 ",
"  c None",
". c black",
/* pixels */
"                ",
"                ",
"                ",
"                ",
"                ",
"                ",
"                ",
"  .  . .. ..    ",
"  .  . ... .    ",
"                ",
"                ",
"                ",
"                ",
"                ",
"                ",
"                "
};
