/* XPM */
static char *_fe3fb915fc64cb2a44fd190ce78e25119UJ6Iz2T038QhVZ[] = {
/* columns rows colors chars-per-pixel */
"64 64 2 1 ",
"  c None",
". c black",
/* pixels */
"                             ......                             ",
"                         ..............                         ",
"                     .....            .....                     ",
"                   ...                    ...                   ",
"                 ...                         ..                 ",
"               ...                             ..               ",
"              ..                                ..              ",
"             .                                    ..            ",
"           ..                                      ..           ",
"          ..                                        ..          ",
"         ..                                          ..         ",
"        ..                                            ..        ",
"        .                                              ..       ",
"       .                                                .       ",
"      .                                                  .      ",
"     ..                                                  ..     ",
"     .                                                    .     ",
"    ..                                                     .    ",
"    .                                                      .    ",
"   ..                                                       .   ",
"   .                                                        .   ",
"  ..                                                        ..  ",
"  .                                                          .  ",
"  .                                                          .  ",
"  .                                                          .. ",
" ..          ......     ....     ..    ....    .......        . ",
" .          ..    ..     ..     ...     ..    ..    ..        . ",
" .         ...    ...    ..     ...     .    ..     ..        . ",
" .         ..      ..    ..    ....    ..    ..               ..",
"..         ..      ...    ..   .. .    ..    ..               ..",
"..        ...      ...   ...   .. ..   ..   ...               ..",
"..        ...      ...    ... ..  ... ..    ...               ..",
"..        ............... ...... ....... ............         ..",
"..        ...      ...    ... ..  ... ..    ...               ..",
"..        ...      ..      .. .    .  .     ..                ..",
"..         ..      ..      ....    ....      ..               ..",
" .         ..      ..      ....    ...       ..     ..        ..",
" .          ..    ..        ..     ...        ..    ..        . ",
" ..          ......         ..      ..         .......        . ",
"  .                                                          .. ",
"  .                                                          .  ",
"  .                                                          .  ",
"  ..                                                        ..  ",
"   .                                                        .   ",
"   .                                                        .   ",
"    .                                                      .    ",
"    .                                                      .    ",
"     .                                                    .     ",
"     ..                                                  ..     ",
"      .                                                  .      ",
"       .                                                .       ",
"       ..                                              ..       ",
"        ..                                            ..        ",
"         ..                                          ..         ",
"          ..                                        ..          ",
"           ..                                      ..           ",
"            ..                                    ..            ",
"              ..                                ..              ",
"               ..                              ..               ",
"                 ..                          ..                 ",
"                   ...                    ...                   ",
"                     ....              ....                     ",
"                        ................                        ",
"                            ........                            "
};
