/* XPM */
static char *b41f5fc18e1a483b856e7903bec8b81b6m3OprWlVbrWRYaL[] = {
/* columns rows colors chars-per-pixel */
"128 128 2 1 ",
"  c None",
". c black",
/* pixels */
"                                                                                                                                ",
"                                                            ........                                                            ",
"                                                     ......................                                                     ",
"                                                ...........          ...........                                                ",
"                                             .......                        .......                                             ",
"                                          ......                                ......                                          ",
"                                       .....                                        .....                                       ",
"                                     .....                                            .....                                     ",
"                                   ....                                                  ....                                   ",
"                                 ....                                                      ....                                 ",
"                                ...                                                          ...                                ",
"                              ...                                                              ...                              ",
"                             ...                                                                ...                             ",
"                           ...                                                                    ...                           ",
"                          ...                                                                      ...                          ",
"                         ..                                                                          ..                         ",
"                       ...                                                                            ...                       ",
"                      ...                                                                              ...                      ",
"                     ...                                                                                ...                     ",
"                    ...                                                                                  ...                    ",
"                   ...                                                                                    ...                   ",
"                  ...                                                                                      ...                  ",
"                 ...                                                                                        ...                 ",
"                ...                                                                                          ...                ",
"                ..                                                                                            ..                ",
"               ..                                                                                              ..               ",
"              ..                                                                                                ..              ",
"             ..                                                                                                  ..             ",
"             ..                                                                                                  ..             ",
"            ..                                                                                                    ..            ",
"           ..                                                                                                      ..           ",
"           ..                                                                                                      ..           ",
"          ..                                                                                                        ..          ",
"         ..                                                                                                          ..         ",
"         ..                                                                                                          ..         ",
"        ..                                                                                                            ..        ",
"        ..                                                                                                            ..        ",
"       ..                                                                                                              ..       ",
"       ..                                                                                                              ..       ",
"      ..                                                                                                                ..      ",
"      ..                                                                                                                ..      ",
"      ..                                                                                                                ..      ",
"     ..                                                                                                                  ..     ",
"     ..                                                                                                                  ..     ",
"     .                                                                                                                    .     ",
"    ..                                                                                                                    ..    ",
"    ..                                                                                                                    ..    ",
"    ..                                                                                                                    ..    ",
"   ..                                                                                                                      ..   ",
"   ..                          ..                                                                   .                      ..   ",
"   ..                      ..........          .........         ....        .........         ............                ..   ",
"   ..                     .............         .......          ....         .......         ..............               ..   ",
"   .                    .....      .....         .....          .....          .....        .....      .....                .   ",
"  ..                    ....        .....        .....          ......          ...        .....        ....                ..  ",
"  ..                   ....          ....         ....          ......         ....        ....         ....                ..  ",
"  ..                  ....           .....        ....         .......         ...        ....           ...                ..  ",
"  ..                  ....            ....        ....         .......         ...        ....            .                 ..  ",
"  ..                 .....            .....       .....        ..  ....        ...       .....                              ..  ",
"  ..                 .....            .....        ....        ..  ....       ...        ....                               ..  ",
"  .                  ....             .....        ....       ...  ....       ...        ....                                .  ",
" ..                  ....              ....        ....       ...  ....       ...        ....                                .. ",
" ..                 .....             ......       .....      ...  .....     ....       .....                                .. ",
" ..                .........................................................................................                 .. ",
" ..                 .....              ....         ....     ...    ....     ...        .....                                .. ",
" ..                 .....              ....         .....    ...    ....    ....        .....                                .. ",
" ..                .........................................................................................                 .. ",
" ..                 .....              ....          ....   ...     .....   ...         .....                                .. ",
" ..                  ....              ....          ....   ...      ....   ..          .....                                .. ",
"  .                  ....              ....          .....  ..       ....  ...           ....                                .  ",
"  ..                 .....            .....           .... ...       ....  ...           ....                               ..  ",
"  ..                 .....            ....            .... ...        ...  ..            ....                               ..  ",
"  ..                  ....            ....            .... ...        .......            .....           ..                 ..  ",
"  ..                  .....          .....            .......         .......             ....           ...                ..  ",
"  ..                  .....          ....              ......         ......              .....         ....                ..  ",
"  ..                   .....        ....               ......          .....               ....         ....                ..  ",
"   .                    .....      ....                .....           .....               ......      .....                .   ",
"   ..                    .............                  ....           ....                  ...............               ..   ",
"   ..                      ..........                   ....           ....                   .............                ..   ",
"   ..                          .                                                                  ..                       ..   ",
"   ..                                                                                                                      ..   ",
"    ..                                                                                                                    ..    ",
"    ..                                                                                                                    ..    ",
"    ..                                                                                                                    ..    ",
"     .                                                                                                                    .     ",
"     ..                                                                                                                  ..     ",
"     ..                                                                                                                  ..     ",
"      ..                                                                                                                ..      ",
"      ..                                                                                                                ..      ",
"      ..                                                                                                                ..      ",
"       ..                                                                                                              ..       ",
"       ..                                                                                                              ..       ",
"        ..                                                                                                            ..        ",
"        ..                                                                                                            ..        ",
"         ..                                                                                                          ..         ",
"         ..                                                                                                          ..         ",
"          ..                                                                                                        ..          ",
"           ..                                                                                                      ..           ",
"           ..                                                                                                      ..           ",
"            ..                                                                                                    ..            ",
"             ..                                                                                                  ..             ",
"             ..                                                                                                  ..             ",
"              ..                                                                                                ..              ",
"               ..                                                                                              ..               ",
"                ..                                                                                            ..                ",
"                ...                                                                                          ...                ",
"                 ...                                                                                        ...                 ",
"                  ...                                                                                      ...                  ",
"                   ...                                                                                    ...                   ",
"                    ...                                                                                  ...                    ",
"                     ...                                                                                ...                     ",
"                      ...                                                                              ...                      ",
"                       ...                                                                            ...                       ",
"                         ..                                                                          ..                         ",
"                          ...                                                                      ...                          ",
"                           ...                                                                    ...                           ",
"                             ...                                                                ...                             ",
"                              ...                                                              ...                              ",
"                                ...                                                          ...                                ",
"                                 ....                                                      ....                                 ",
"                                   ....                                                  ....                                   ",
"                                     .....                                            .....                                     ",
"                                       .....                                        .....                                       ",
"                                          ......                                ......                                          ",
"                                             .......                        .......                                             ",
"                                                ...........          ...........                                                ",
"                                                     ......................                                                     ",
"                                                            ........                                                            ",
"                                                                                                                                "
};
