/* XPM */
static char *_2a4c25264b24d35f4fbf5d5ef43021bhgsSzDB0XCHVzGhQ[] = {
/* columns rows colors chars-per-pixel */
"32 32 2 1 ",
"  c None",
". c black",
/* pixels */
"                                ",
"                                ",
"        .              .        ",
"       .                .       ",
"     .                    .     ",
"    .                      .    ",
"                                ",
"   .                        .   ",
"  .                          .  ",
"                                ",
"                                ",
"                                ",
"       ..   .       .   ...     ",
"      .  .  ..  ..  .  .  .     ",
"     ..  ..  .  ..  . ..        ",
"     ..  ..  . ... .. ..        ",
"     ..  ..  ... ...  ..        ",
"     ..  ..  ..  ..   .         ",
"      .  .    .   .    .  .     ",
"       ..     .   .     ...     ",
"                                ",
"                                ",
"                                ",
"  .                          .  ",
"   .                            ",
"                                ",
"    .                      .    ",
"     .                    .     ",
"       .                ..      ",
"        .              .        ",
"          .          .          ",
"                                "
};
